<?xml version="1.0" encoding="UTF-8"?>
<svg xmlns="http://www.w3.org/2000/svg" version="1.1" width="512" height="512">
  <path d="M0 0 C0.89557617 0.16097168 1.79115234 0.32194336 2.71386719 0.48779297 C43.7685921 7.91531619 86.30056955 26.27853729 118 54 C118 54.66 118 55.32 118 56 C118.57234375 56.25523438 119.1446875 56.51046875 119.734375 56.7734375 C133.82083785 64.39955704 147.5392097 81.39646869 157 94 C157.73597412 94.97791504 157.73597412 94.97791504 158.48681641 95.97558594 C165.96544191 105.96654466 172.86553716 116.13255857 179 127 C179.65226562 128.12921875 180.30453125 129.2584375 180.9765625 130.421875 C198.71601453 161.82776557 210.03384501 199.0338845 210.23828125 235.15625 C210.24235678 235.83607437 210.2464323 236.51589874 210.25063133 237.21632385 C210.2714171 240.82959678 210.28573914 244.44283281 210.29516602 248.05615234 C210.30393616 250.99028874 210.3246039 253.92393759 210.35668945 256.85791016 C210.54978063 274.92963844 209.96313436 292.26227133 206 310 C205.77185104 311.02565063 205.77185104 311.02565063 205.53909302 312.07202148 C204.69406348 315.75543098 203.7057156 319.37950855 202.625 323 C202.32319824 324.03922607 202.02139648 325.07845215 201.71044922 326.14916992 C199.21098166 334.60572373 196.42634269 342.87461735 193 351 C192.67805664 351.76586426 192.35611328 352.53172852 192.02441406 353.32080078 C185.1876809 369.39954836 177.40230543 384.91447483 167 399 C166.27554687 400.05058594 165.55109375 401.10117187 164.8046875 402.18359375 C158.90027584 410.73622772 152.3835355 418.57718002 145.46240234 426.32421875 C144.00570929 427.99345767 142.62217444 429.7077601 141.23828125 431.4375 C140.49964844 432.283125 139.76101563 433.12875 139 434 C138.34 434 137.68 434 137 434 C137 434.66 137 435.32 137 436 C136.34 436 135.68 436 135 436 C135 436.66 135 437.32 135 438 C133.7421875 439.3046875 133.7421875 439.3046875 131.875 440.875 C129.22751714 443.11126824 126.59489628 445.35314457 124.01953125 447.671875 C115.26254375 455.47896091 105.91129671 462.10194665 96.13720703 468.57373047 C94.30172084 469.79864597 92.48770516 471.04600878 90.68359375 472.31640625 C82.85654901 477.75806593 74.61451872 481.9722193 66 486 C65.35546875 486.30292969 64.7109375 486.60585938 64.046875 486.91796875 C52.98203688 492.06806617 41.60495641 496.23816993 30 500 C28.89084229 500.35989014 28.89084229 500.35989014 27.75927734 500.72705078 C5.06993146 507.92324096 -17.94379064 509.69457294 -41.60107422 509.57641602 C-44.4472578 509.56267694 -47.2920989 509.56960311 -50.13818359 509.59692383 C-98.41395119 510.05838625 -144.54953478 496.43196684 -185 470 C-185.69996094 469.5447998 -186.39992188 469.08959961 -187.12109375 468.62060547 C-196.05608122 462.76585925 -204.40593928 456.47734059 -212.41137695 449.40014648 C-213.5546759 448.3924902 -214.70515042 447.39295424 -215.86010742 446.39868164 C-228.0177884 435.90109757 -239.26603323 424.53079058 -248.81201172 411.59814453 C-249.95736842 410.05735025 -251.13634478 408.5417228 -252.31640625 407.02734375 C-286.09473532 363.37986809 -302.52117091 308.65883232 -302.3125 253.875 C-302.31067719 252.88143494 -302.30885437 251.88786987 -302.30697632 250.86419678 C-302.26219978 236.370308 -301.80110213 222.25863903 -299 208 C-298.83902832 207.10442383 -298.67805664 206.20884766 -298.51220703 205.28613281 C-293.10737216 175.41157006 -282.26488404 145.71725121 -266 120 C-265.35708008 118.97712891 -265.35708008 118.97712891 -264.70117188 117.93359375 C-257.54661092 106.64948787 -249.67845728 96.15276711 -241 86 C-239.86498047 84.66775391 -239.86498047 84.66775391 -238.70703125 83.30859375 C-228.7362498 71.95350118 -217.96309118 61.23950558 -206 52 C-204.56527344 50.83984375 -204.56527344 50.83984375 -203.1015625 49.65625 C-170.51912197 23.7216122 -131.71848953 7.6793029 -91 0 C-90.16243164 -0.16661133 -89.32486328 -0.33322266 -88.46191406 -0.50488281 C-60.50815383 -5.8776111 -27.89361835 -5.47968663 0 0 Z " fill="#1C1D1B" transform="translate(302,3)"></path>
  <path d="M0 0 C6.50363787 5.01932412 12.71130031 10.92790581 17 18 C17 18.99 17 19.98 17 21 C17.55953621 20.99631283 18.11907242 20.99262566 18.69556427 20.98882675 C32.33437097 20.90034215 45.97312712 20.83448133 59.61215973 20.79275131 C66.20802011 20.77189129 72.80367306 20.74360183 79.39941406 20.69824219 C85.76661718 20.65472907 92.13362096 20.63085096 98.5009613 20.62049103 C100.92820879 20.61310957 103.35544557 20.59869533 105.78260803 20.57707977 C109.18669064 20.5479742 112.58995327 20.54404714 115.99414062 20.54589844 C116.99395966 20.53151733 117.99377869 20.51713623 119.02389526 20.50231934 C126.76323791 20.54775823 131.95471385 22.36075201 137.8125 27.4375 C145.51286576 36.45792846 144.49948142 46.14231063 143.7265625 57.40625 C140.42202852 97.65060042 122.13229575 135.27834051 94 164 C93.24203125 164.80824219 92.4840625 165.61648438 91.703125 166.44921875 C75.89185757 182.98180313 55.22104489 195.13034534 33.98095703 203.22192383 C32.16003678 203.93714109 30.37425121 204.74016315 28.59375 205.55078125 C24.10079752 207.36261317 19.58882371 208.47940492 14.875 209.5625 C13.46480591 209.8867395 13.46480591 209.8867395 12.02612305 210.2175293 C9.35307126 210.82277029 6.67711201 211.41303105 4 212 C2.34291016 212.37898438 2.34291016 212.37898438 0.65234375 212.765625 C-6.93141403 214.22604603 -14.61279965 214.26601439 -22.3125 214.375 C-23.99605591 214.41427612 -23.99605591 214.41427612 -25.71362305 214.4543457 C-32.30581709 214.46761561 -37.60327773 214.04054454 -43 210 C-45.05859375 207.74609375 -45.05859375 207.74609375 -46.4375 205.4375 C-46.91058594 204.67308594 -47.38367188 203.90867187 -47.87109375 203.12109375 C-50.9995602 197.24304087 -50.92906211 190.20126757 -49.0625 183.875 C-46.88788421 178.71685337 -42.43984051 175.22531892 -38 172 C-35.22241866 171.07413955 -33.13131274 170.77363192 -30.23828125 170.5703125 C6.49937965 167.80958856 41.17451956 156.60189144 66.44140625 128.390625 C82.202234 110.01015013 92.25375517 88.73122415 97 65 C70.6 65 44.2 65 17 65 C16.34 66.65 15.68 68.3 15 70 C8.09635355 81.21292895 -1.94340341 87.77496804 -14.203125 92.140625 C-26.62011476 94.95105478 -40.95333993 94.63499868 -52 88 C-52.80308594 87.54238281 -53.60617188 87.08476562 -54.43359375 86.61328125 C-67.37654335 78.64671025 -74.01134142 67.36220012 -78.58984375 53.171875 C-81.1715007 39.50138677 -78.15923641 25.8679306 -70.6171875 14.2734375 C-62.72625568 3.18038842 -53.03754303 -3.06971961 -40 -7 C-39.38125 -7.19335938 -38.7625 -7.38671875 -38.125 -7.5859375 C-24.9752478 -10.14820539 -11.21831796 -7.11319214 0 0 Z " fill="#4FEDAB" transform="translate(285,215)"></path>
  <path d="M0 0 C0.89557617 0.16097168 1.79115234 0.32194336 2.71386719 0.48779297 C43.7685921 7.91531619 86.30056955 26.27853729 118 54 C118 54.66 118 55.32 118 56 C118.57234375 56.25523438 119.1446875 56.51046875 119.734375 56.7734375 C133.82083785 64.39955704 147.5392097 81.39646869 157 94 C157.73597412 94.97791504 157.73597412 94.97791504 158.48681641 95.97558594 C165.96544191 105.96654466 172.86553716 116.13255857 179 127 C179.65226562 128.12921875 180.30453125 129.2584375 180.9765625 130.421875 C198.71601453 161.82776557 210.03384501 199.0338845 210.23828125 235.15625 C210.24235678 235.83607437 210.2464323 236.51589874 210.25063133 237.21632385 C210.2714171 240.82959678 210.28573914 244.44283281 210.29516602 248.05615234 C210.30393616 250.99028874 210.3246039 253.92393759 210.35668945 256.85791016 C210.54978063 274.92963844 209.96313436 292.26227133 206 310 C205.77185104 311.02565063 205.77185104 311.02565063 205.53909302 312.07202148 C204.69406348 315.75543098 203.7057156 319.37950855 202.625 323 C202.32319824 324.03922607 202.02139648 325.07845215 201.71044922 326.14916992 C199.21098166 334.60572373 196.42634269 342.87461735 193 351 C192.67805664 351.76586426 192.35611328 352.53172852 192.02441406 353.32080078 C185.1876809 369.39954836 177.40230543 384.91447483 167 399 C166.27554687 400.05058594 165.55109375 401.10117187 164.8046875 402.18359375 C158.90027584 410.73622772 152.3835355 418.57718002 145.46240234 426.32421875 C144.00570929 427.99345767 142.62217444 429.7077601 141.23828125 431.4375 C140.49964844 432.283125 139.76101563 433.12875 139 434 C138.34 434 137.68 434 137 434 C137 434.66 137 435.32 137 436 C136.34 436 135.68 436 135 436 C135 436.66 135 437.32 135 438 C133.7421875 439.3046875 133.7421875 439.3046875 131.875 440.875 C129.22751714 443.11126824 126.59489628 445.35314457 124.01953125 447.671875 C115.26254375 455.47896091 105.91129671 462.10194665 96.13720703 468.57373047 C94.30172084 469.79864597 92.48770516 471.04600878 90.68359375 472.31640625 C82.85654901 477.75806593 74.61451872 481.9722193 66 486 C65.35546875 486.30292969 64.7109375 486.60585938 64.046875 486.91796875 C52.98203688 492.06806617 41.60495641 496.23816993 30 500 C28.89084229 500.35989014 28.89084229 500.35989014 27.75927734 500.72705078 C5.06993146 507.92324096 -17.94379064 509.69457294 -41.60107422 509.57641602 C-44.4472578 509.56267694 -47.2920989 509.56960311 -50.13818359 509.59692383 C-98.41395119 510.05838625 -144.54953478 496.43196684 -185 470 C-185.69996094 469.5447998 -186.39992188 469.08959961 -187.12109375 468.62060547 C-196.05608122 462.76585925 -204.40593928 456.47734059 -212.41137695 449.40014648 C-213.5546759 448.3924902 -214.70515042 447.39295424 -215.86010742 446.39868164 C-228.0177884 435.90109757 -239.26603323 424.53079058 -248.81201172 411.59814453 C-249.95736842 410.05735025 -251.13634478 408.5417228 -252.31640625 407.02734375 C-286.09473532 363.37986809 -302.52117091 308.65883232 -302.3125 253.875 C-302.31067719 252.88143494 -302.30885437 251.88786987 -302.30697632 250.86419678 C-302.26219978 236.370308 -301.80110213 222.25863903 -299 208 C-298.83902832 207.10442383 -298.67805664 206.20884766 -298.51220703 205.28613281 C-293.10737216 175.41157006 -282.26488404 145.71725121 -266 120 C-265.35708008 118.97712891 -265.35708008 118.97712891 -264.70117188 117.93359375 C-257.54661092 106.64948787 -249.67845728 96.15276711 -241 86 C-239.86498047 84.66775391 -239.86498047 84.66775391 -238.70703125 83.30859375 C-228.7362498 71.95350118 -217.96309118 61.23950558 -206 52 C-204.56527344 50.83984375 -204.56527344 50.83984375 -203.1015625 49.65625 C-170.51912197 23.7216122 -131.71848953 7.6793029 -91 0 C-90.16243164 -0.16661133 -89.32486328 -0.33322266 -88.46191406 -0.50488281 C-60.50815383 -5.8776111 -27.89361835 -5.47968663 0 0 Z M-126 18 C-126.72493652 18.23944336 -127.44987305 18.47888672 -128.19677734 18.72558594 C-159.35595735 29.19555669 -187.42761483 46.76660711 -211.62109375 68.83984375 C-213.78271952 70.80269933 -215.97526262 72.7196626 -218.1875 74.625 C-225.61221478 81.12905014 -231.88946198 88.2534649 -238 96 C-238.49838379 96.62729004 -238.99676758 97.25458008 -239.51025391 97.90087891 C-278.50737704 147.16102805 -294.73851383 203.799644 -294 266 C-293.99806641 266.79035645 -293.99613281 267.58071289 -293.99414062 268.39501953 C-293.88559419 291.14092445 -287.64160532 314.74045435 -280 336 C-279.69868164 336.86737793 -279.39736328 337.73475586 -279.08691406 338.62841797 C-268.41333883 369.26553205 -251.1015637 397.27394999 -229 421 C-227.78661781 422.39144666 -226.57802197 423.78708639 -225.375 425.1875 C-219.68843056 431.67901762 -213.61297811 437.26988135 -206.8828125 442.6796875 C-205.00895684 444.18791279 -203.1486387 445.71316932 -201.3046875 447.2578125 C-161.900133 480.22897035 -109.47685398 500.7144178 -58 502 C-57.15808105 502.02578125 -56.31616211 502.0515625 -55.44873047 502.078125 C-32.75190199 502.69836284 -10.1421047 500.85205494 11.95166016 495.48535156 C13.86891134 495.03106129 15.79956868 494.63443317 17.73046875 494.2421875 C37.02659487 490.05356581 55.95298463 481.87627084 73 472 C74.8321193 471.03934774 76.66540119 470.08090852 78.5 469.125 C93.39550272 460.94794361 107.24504944 450.58172228 119.7265625 439.08984375 C121.84630212 437.14128585 124.00483469 435.25242667 126.1875 433.375 C141.15111835 420.30436951 153.17363825 404.32623696 163.89941406 387.69726562 C164.88399016 386.17890426 165.88984356 384.67438942 166.8984375 383.171875 C180.56962764 362.51043831 191.09280503 337.09956318 196.125 312.875 C196.29112793 312.09858154 196.45725586 311.32216309 196.62841797 310.5222168 C196.95078091 309.00913961 197.27013238 307.49541653 197.5859375 305.98095703 C197.9227868 304.36940326 198.27205506 302.76044912 198.625 301.15234375 C206.1635765 265.87416154 204.82708768 227.89115006 196 193 C195.69304199 191.76854248 195.69304199 191.76854248 195.37988281 190.51220703 C185.64788101 152.21699813 166.24722834 116.17494652 139.18359375 87.3359375 C137.27566872 85.29490142 135.47702181 83.20642589 133.6875 81.0625 C94.70482035 36.43279666 32.56032414 9.95789032 -25.625 5.1875 C-28.08807034 5.08978192 -30.53629913 5.02970302 -33 5 C-33.94987793 4.98098633 -34.89975586 4.96197266 -35.87841797 4.94238281 C-67.28197865 4.36547656 -96.17337102 8.05967512 -126 18 Z " fill="#4EEBAA" transform="translate(302,3)"></path>
  <path d="M0 0 C1.43859375 -0.04350586 1.43859375 -0.04350586 2.90625 -0.08789062 C10.36794413 -0.15451289 14.58143828 1.12433315 20.14453125 6.3125 C20.69496094 6.9725 21.24539063 7.6325 21.8125 8.3125 C22.65748047 9.3025 22.65748047 9.3025 23.51953125 10.3125 C27.7233072 15.99147965 27.9620827 21.39061296 27 28.3125 C24.32672737 35.20973366 20.31812802 39.61699116 14 43.3125 C10.91976975 44.33924342 8.27116767 44.46056658 5.04833984 44.55151367 C-29.18350756 45.58957392 -59.08987573 57.78176372 -84 81.3125 C-84.75023437 81.99828125 -85.50046875 82.6840625 -86.2734375 83.390625 C-107.62620175 103.61955955 -121.36325861 134.8424268 -122.1875 164.24609375 C-122.20796387 165.07488037 -122.22842773 165.90366699 -122.24951172 166.75756836 C-122.46359767 175.22889983 -122.96023854 181.76590541 -129 188.3125 C-134.60148042 192.98040035 -140.47622719 194.83544951 -147.703125 194.6171875 C-154.71096573 193.68757598 -159.05364311 189.67877977 -163.5546875 184.5078125 C-167.07224724 179.16492446 -167.35669386 173.87720257 -167.3125 167.6875 C-167.30758545 166.85992187 -167.3026709 166.03234375 -167.29760742 165.1796875 C-166.51028897 122.28496328 -147.44185222 83.5707997 -119 52.3125 C-117.99066406 51.19488281 -117.99066406 51.19488281 -116.9609375 50.0546875 C-90.77076737 22.52714698 -54.8020568 7.4532959 -18 1.3125 C-16.25009766 1.01085937 -16.25009766 1.01085937 -14.46484375 0.703125 C-9.63912797 0.15907587 -4.853153 0.04892291 0 0 Z " fill="#4FECAB" transform="translate(252,85.6875)"></path>
</svg>
